<svg xmlns="http://www.w3.org/2000/svg" xmlns:ev="http://www.w3.org/2001/xml-events" xmlns:xlink="http://www.w3.org/1999/xlink" width="738" height="708" class="st15" color-interpolation-filters="sRGB" viewBox="0 0 553.5 531" xml:space="preserve"><style type="text/css">.st1,.st2{fill:#fff;stroke:none;stroke-linecap:round;stroke-linejoin:round;stroke-width:.75}.st2{fill:#e5b9b5;stroke:#000;stroke-width:.24}.st3{fill:#000;font-family:Times New Roman;font-size:.833336em}.st4{font-size:1em}.st5{fill:#92cddc;stroke:#000;stroke-linecap:round;stroke-linejoin:round;stroke-width:.24}.st6{fill:#0d0d0d;font-family:Calibri;font-size:.833336em}.st7{fill:#ebf1df;stroke:#000;stroke-linecap:round;stroke-linejoin:round;stroke-width:.24}.st8{fill:#5880b3;font-family:Calibri;font-size:.833336em;font-weight:700}.st9{font-size:1em;text-decoration:underline}.st10{marker-end:url(#mrkr4-43);stroke:#000;stroke-linecap:round;stroke-linejoin:round;stroke-width:.239976}.st11{fill:#000;fill-opacity:1;stroke:#000;stroke-opacity:1;stroke-width:.086948582161584}.st12{fill:#fee599;stroke:#000;stroke-linecap:round;stroke-linejoin:round;stroke-width:.24}.st13,.st14{fill:#000;font-family:Calibri;font-size:.833336em}.st14{font-weight:700}.st15{fill:none;fill-rule:evenodd;font-size:12px;overflow:visible;stroke-linecap:square;stroke-miterlimit:3}</style><defs id="Markers"><g id="lend4"><path d="M 2 1 L 0 0 L 2 -1 L 2 1" style="stroke:none"/></g><marker id="mrkr4-43" class="st11" markerUnits="strokeWidth" orient="auto" overflow="visible" refX="-23.002"><use transform="scale(-11.501050105011,-11.501050105011)" xlink:href="#lend4"/></marker></defs><g><title>VBackground-1</title><g id="shape1000-1"><title>Solid.1000</title><rect width="553.5" height="531" x="0" y="0" class="st1"/></g></g><g><title>Page-1</title><g id="shape1-3" transform="translate(208.125,-432)"><title>Decision</title><desc>Is the query waiting or running?</desc><path d="M6.14 490.11 L44.92 461.03 A5.76 5.76 0 0 1 51.83 461.03 L90.61 490.11 A5.76 5.76 0 0 1 90.61 499.33 L51.83 528.41 A5.76 5.76 0 0 1 44.92 528.41 L6.14 499.33 A5.76 5.76 0 0 1 6.14 490.11 Z" class="st2"/><text x="24.77" y="485.72" class="st3">Is the query <tspan x="27.96" class="st4" dy="1.2em">waiting or </tspan><tspan x="30.6" class="st4" dy="1.2em">running?</tspan></text></g><g id="shape2-8" transform="translate(355.5,-310.5)"><title>Process</title><desc>Query is Running long (CPU is being used)</desc><rect width="99" height="54" x="0" y="477" class="st5" rx="7.2" ry="7.2"/><text x="5.03" y="500.85" class="st6">Query is Running long<tspan x="10.58" class="st4" dy="1.223em">(CPU is being used)</tspan></text></g><a xlink:href="Blocking_Locks.vsd" xlink:title="Blocking_Locks.vsd"><g id="shape3-12" transform="translate(61.3125,-274.5)"><title>Process.22</title><desc>Lock waits</desc><rect width="160.875" height="27" x="0" y="504" class="st7" rx="7.2" ry="7.2"/><text x="58.86" y="520.5" class="st8"><tspan class="st9">Lock waits</tspan></text></g></a><g id="shape4-16" transform="translate(59.0625,-234)"><title>Process.4</title><desc>Memory waits</desc><rect width="163.125" height="27" x="0" y="504" class="st7" rx="7.2" ry="7.2"/><text x="51.49" y="520.5" class="st8"><tspan class="st9">Memory waits</tspan></text></g><g id="shape5-20" transform="translate(57.375,-193.5)"><title>Process.5</title><desc>I/O waits (PAGEIOLATCH, WRITELOG)</desc><rect width="166.5" height="27" x="0" y="504" class="st7" rx="7.2" ry="7.2"/><text x="5.72" y="520.5" class="st8"><tspan class="st9">I/O waits (PAGEIOLATCH, WRITELOG)</tspan></text></g><g id="shape6-24" transform="translate(60.75,-112.5)"><title>Process.6</title><desc>Latch waits (PAGELATCH, LATCH_*)</desc><rect width="163.125" height="27" x="0" y="504" class="st7" rx="7.2" ry="7.2"/><text x="8.39" y="520.5" class="st8"><tspan class="st9">Latch waits (PAGELATCH, LATCH_*)</tspan></text></g><g id="shape7-28" transform="translate(60.75,-72)"><title>Process.27</title><desc>SOS_SCHEDULER_YIELD waits</desc><rect width="163.125" height="27" x="0" y="504" class="st7" rx="7.2" ry="7.2"/><text x="20.17" y="520.5" class="st8"><tspan class="st9">SOS_SCHEDULER_YIELD waits</tspan></text></g><a xlink:href="https://microsoft.sharepoint.com/teams/CSSSQLTeam/Shared Documents/Data Flow Charts/AsyncNetworkIO.vsd#ASYNC_NETWORK_IO" xlink:title="AsyncNetworkIO.vsd"><g id="shape8-32" transform="translate(60.75,-153)"><title>Process.28</title><desc>Network waits (ASYNC_NETWORK_IO)</desc><rect width="163.125" height="27" x="0" y="504" class="st7" rx="7.2" ry="7.2"/><text x="51.15" y="514.5" class="st8"><tspan class="st9">Network waits </tspan><tspan x="33.15" class="st9" dy="1.2em">(ASYNC_NETWORK_IO)</tspan></text></g></a><g id="shape9-37" transform="translate(295.875,-459.281)"><title>Dynamic connector</title></g><g id="shape10-38" transform="translate(208.125,-468.281)"><title>Dynamic connector.38</title><path d="M0 531 L-104.62 531 L-104.62 624.76" class="st10"/></g><g id="shape11-44" transform="translate(46.4062,-342)"><title>Dynamic connector.53</title><path d="M3.09 531 L-10.41 531 L-10.41 585 L9.39 585" class="st10"/></g><g id="shape12-49" transform="translate(45.2812,-342)"><title>Dynamic connector.54</title><path d="M4.22 531 L-9.28 531 L-9.28 625.5 L8.26 625.5" class="st10"/></g><g id="shape13-54" transform="translate(44.4375,-342)"><title>Dynamic connector.55</title><path d="M5.06 531 L-8.44 531 L-8.44 666 L7.42 666" class="st10"/></g><g id="shape14-59" transform="translate(46.125,-342)"><title>Dynamic connector.56</title><path d="M3.37 531 L-10.13 531 L-10.13 706.5 L9.11 706.5" class="st10"/></g><g id="shape15-64" transform="translate(46.125,-342)"><title>Dynamic connector.57</title><path d="M3.37 531 L-10.13 531 L-10.13 747 L9.11 747" class="st10"/></g><g id="shape18-69" transform="translate(171.68,-365.543)"><title>Revision cloud.85</title><desc>Compare CPU vs Duration: If CPU is less than 70-80% of durati...</desc><path d="M6.85 496.33 A22.382 10.0015 -180 0 0 17.65 513.31 A27.3435 12.2185 -180 0 0 59.66 523.92 A27.6686 12.3638 -180 0 0 108.43 524.97 A32.9021 14.7024 -180 0 0 159.55 512.67 A25.4078 11.3535 -180 0 0 171.35 493.34 A19.9315 8.90646 -180 0 0 155.62 479.28 A34.0881 15.2324 -180 0 0 96.63 474.01 A33.5003 14.9697 -180 0 0 37.64 475.77 A31.3787 14.0217 -180 0 0 6.85 496.33 Z" class="st12"/><text x="35.78" y="489.97" class="st13">Compare CPU vs Duration:<tspan x="13.65" class="st4" dy="1.2em">If CPU is less than 70</tspan>-80% of duration<tspan x="27.88" class="st4" dy="1.2em">likely you have a Waiting issue</tspan></text></g><g id="shape19-74" transform="translate(46.125,-342)"><title>Dynamic connector.65</title><path d="M3.37 531 L-10.13 531 L-10.13 787.5 L9.11 787.5" class="st10"/></g><g id="shape20-79" transform="translate(304.875,-468.281)"><title>Dynamic connector.100</title><path d="M0 531 L100.12 531 L100.12 629.26" class="st10"/></g><g id="shape23-84" transform="translate(363.937,-211.5)"><title>Process.132</title><desc>Long Execution</desc><rect width="163.125" height="27" x="0" y="504" class="st7" rx="7.2" ry="7.2"/><text x="50.21" y="520.5" class="st8"><tspan class="st9">Long Execution</tspan></text></g><g id="shape24-88" transform="translate(363.937,-265.5)"><title>Process.143</title><desc>Long Compilation</desc><rect width="163.125" height="27" x="0" y="504" class="st7" rx="7.2" ry="7.2"/><text x="45.23" y="520.5" class="st8"><tspan class="st9">Long Compilation</tspan></text></g><g id="shape25-92" transform="translate(60.75,-29.25)"><title>Process.93</title><desc>Other Waits (wait types…)</desc><rect width="160.875" height="27" x="0" y="504" class="st7" rx="7.2" ry="7.2"/><text x="25.87" y="520.5" class="st14">Other Waits (wait types…)</text></g><g id="shape26-95" transform="translate(350.719,-337.5)"><title>Dynamic connector.149</title><path d="M4.78 531 L-8.72 531 L-8.72 589.5 L7.7 589.5" class="st10"/></g><g id="shape27-100" transform="translate(350.719,-337.5)"><title>Dynamic connector.150</title><path d="M4.78 531 L-8.72 531 L-8.72 643.5 L7.7 643.5" class="st10"/></g><g id="shape28-105" transform="translate(49.5,-315)"><title>Process.3</title><desc>Query is Waiting long (CPU is not being used)</desc><rect width="108" height="54" x="0" y="477" class="st5" rx="7.2" ry="7.2"/><text x="10.46" y="500.85" class="st6">Query is Waiting long<tspan x="7.01" class="st4" dy="1.223em">(CPU is not being used)</tspan></text></g><g id="shape29-109" transform="translate(46.125,-342)"><title>Dynamic connector.29</title><path d="M3.37 531 L-10.13 531 L-10.13 830.25 L9.11 830.25" class="st10"/></g></g></svg>